# Blender 3.5.0
# www.blender.org
mtllib katana.mtl
o Cube
v 0.000000 2.850549 0.070115
v 0.032440 0.035615 0.070115
v -0.032440 0.035615 0.070115
v 0.000000 3.143936 -0.070115
v 0.029091 0.035615 -0.070115
v -0.029091 0.035615 -0.070115
v 0.043367 1.443082 0.070115
v -0.044114 1.443082 -0.070115
v -0.043367 1.443082 0.070115
v 0.044114 1.443082 -0.070115
v 0.000000 0.035615 -0.070115
v 0.000000 0.035615 0.070115
v 0.000000 1.443082 0.070115
v 0.000000 1.443082 -0.070115
v 0.034062 0.035615 -0.000000
v -0.003633 3.053730 0.011568
v -0.034062 0.035615 -0.000000
v 0.035920 1.443082 -0.000000
v -0.035920 1.443082 -0.000000
v 0.000000 0.035615 -0.000000
v -0.015057 2.146815 -0.070115
v 0.000000 2.146815 0.070115
v 0.015057 2.146815 -0.070115
v 0.000000 2.146815 -0.070115
v 0.035920 2.146815 -0.000000
v -0.035920 2.146815 -0.000000
v 0.034062 0.739348 0.070115
v -0.034062 0.739348 0.070115
v 0.029091 0.739348 -0.070115
v -0.029091 0.739348 -0.070115
v 0.000000 0.739348 -0.070115
v 0.000000 0.739348 0.070115
v -0.035920 0.739348 -0.000000
v 0.035920 0.739348 -0.000000
v -0.015057 2.498682 -0.070115
v 0.000000 2.498682 0.070115
v 0.015057 2.498682 -0.070115
v 0.000000 2.498682 -0.070115
v 0.035920 2.498682 -0.000000
v -0.035920 2.498682 -0.000000
v 0.000000 1.794949 0.070115
v 0.015057 1.794949 -0.070115
v 0.000000 1.794949 -0.070115
v 0.035920 1.794949 -0.000000
v -0.035920 1.794949 -0.000000
v -0.015057 1.794949 -0.070115
v -0.029091 1.091215 -0.070115
v 0.034062 1.091215 0.070115
v -0.034062 1.091215 0.070115
v 0.029091 1.091215 -0.070115
v 0.000000 1.091215 -0.070115
v 0.000000 1.091215 0.070115
v -0.035920 1.091215 -0.000000
v 0.035920 1.091215 -0.000000
v 0.034062 0.387481 0.070115
v -0.034062 0.387481 0.070115
v 0.029091 0.387481 -0.070115
v 0.000000 0.387481 -0.070115
v 0.000000 0.387481 0.070115
v -0.035920 0.387481 -0.000000
v 0.035920 0.387481 -0.000000
v -0.029091 0.387481 -0.070115
v -0.031605 1.267148 -0.070115
v 0.029977 1.267148 0.070115
v -0.029977 1.267148 0.070115
v 0.031605 1.267148 -0.070115
v 0.000000 1.267148 -0.070115
v 0.000000 1.267148 0.070115
v -0.035920 1.267148 -0.000000
v 0.035920 1.267148 -0.000000
v 0.173529 1.471052 -0.000000
v 0.173529 1.514463 -0.000000
v 0.170195 1.471052 0.033854
v 0.170195 1.514463 0.033854
v 0.160320 1.471052 0.066407
v 0.160320 1.514463 0.066407
v 0.144284 1.471052 0.096408
v 0.144284 1.514463 0.096408
v 0.122704 1.471052 0.122704
v 0.122704 1.514463 0.122704
v 0.096408 1.471052 0.144284
v 0.096408 1.514463 0.144284
v 0.066407 1.471052 0.160320
v 0.066407 1.514463 0.160320
v 0.033854 1.471052 0.170195
v 0.033854 1.514463 0.170195
v 0.000000 1.471052 0.173529
v 0.000000 1.514463 0.173529
v -0.033854 1.471052 0.170195
v -0.033854 1.514463 0.170195
v -0.066407 1.471052 0.160320
v -0.066407 1.514463 0.160320
v -0.096408 1.471052 0.144284
v -0.096408 1.514463 0.144284
v -0.122704 1.471052 0.122704
v -0.122704 1.514463 0.122704
v -0.144284 1.471052 0.096408
v -0.144284 1.514463 0.096408
v -0.160320 1.471052 0.066407
v -0.160320 1.514463 0.066407
v -0.170195 1.471052 0.033854
v -0.170195 1.514463 0.033854
v -0.173529 1.471052 -0.000000
v -0.173529 1.514463 -0.000000
v -0.170195 1.471052 -0.033854
v -0.170195 1.514463 -0.033854
v -0.160320 1.471052 -0.066407
v -0.160320 1.514463 -0.066407
v -0.144284 1.471052 -0.096408
v -0.144284 1.514463 -0.096408
v -0.122704 1.471052 -0.122704
v -0.122704 1.514463 -0.122704
v -0.096408 1.471052 -0.144284
v -0.096408 1.514463 -0.144284
v -0.066407 1.471052 -0.160320
v -0.066407 1.514463 -0.160320
v -0.033854 1.471052 -0.170195
v -0.033854 1.514463 -0.170195
v 0.000000 1.471052 -0.173529
v 0.000000 1.514463 -0.173529
v 0.033854 1.471052 -0.170195
v 0.033854 1.514463 -0.170195
v 0.066407 1.471052 -0.160320
v 0.066407 1.514463 -0.160320
v 0.096408 1.471052 -0.144284
v 0.096408 1.514463 -0.144284
v 0.122704 1.471052 -0.122704
v 0.122704 1.514463 -0.122704
v 0.144284 1.471052 -0.096408
v 0.144284 1.514463 -0.096408
v 0.160320 1.471052 -0.066407
v 0.160320 1.514463 -0.066407
v 0.170195 1.471052 -0.033854
v 0.170195 1.514463 -0.033854
vn -0.9567 0.0616 -0.2847
vn -0.0000 -0.0000 -1.0000
vn -0.0000 -1.0000 -0.0000
vn 0.8900 -0.0000 0.4560
vn 0.9964 -0.0000 0.0845
vn -0.0000 -0.0000 1.0000
vn -0.9981 -0.0000 -0.0614
vn -0.9964 -0.0000 0.0845
vn 0.9981 -0.0000 -0.0614
vn 0.9558 0.0740 -0.2844
vn -0.8900 -0.0000 0.4560
vn 0.9585 -0.0000 -0.2852
vn -0.9585 -0.0000 -0.2852
vn 0.9953 -0.0000 -0.0969
vn -0.9996 -0.0000 0.0265
vn -0.9953 -0.0000 -0.0969
vn 0.9996 -0.0000 0.0265
vn -0.8900 -0.0000 0.4559
vn 0.8900 -0.0000 0.4559
vn -0.9932 -0.0000 0.1161
vn 0.9944 -0.0000 -0.1056
vn 0.9932 -0.0000 0.1161
vn -0.9944 -0.0000 -0.1056
vn 0.9997 -0.0046 0.0231
vn -0.9975 -0.0000 -0.0707
vn -0.9997 -0.0046 0.0231
vn 0.9975 -0.0000 -0.0707
vn 0.9952 -0.0142 -0.0969
vn -0.9952 -0.0142 -0.0969
vn 0.9952 -0.0000 0.0980
vn 0.9569 -0.0000 0.2903
vn 0.8819 -0.0000 0.4714
vn 0.7730 -0.0000 0.6344
vn 0.6344 -0.0000 0.7730
vn 0.4714 -0.0000 0.8819
vn 0.2903 -0.0000 0.9569
vn 0.0980 -0.0000 0.9952
vn -0.0980 -0.0000 0.9952
vn -0.2903 -0.0000 0.9569
vn -0.4714 -0.0000 0.8819
vn -0.6344 -0.0000 0.7730
vn -0.7730 -0.0000 0.6344
vn -0.8819 -0.0000 0.4714
vn -0.9569 -0.0000 0.2903
vn -0.9952 -0.0000 0.0980
vn -0.9952 -0.0000 -0.0980
vn -0.9569 -0.0000 -0.2903
vn -0.8819 -0.0000 -0.4714
vn -0.7730 -0.0000 -0.6344
vn -0.6344 -0.0000 -0.7730
vn -0.4714 -0.0000 -0.8819
vn -0.2903 -0.0000 -0.9569
vn -0.0980 -0.0000 -0.9952
vn 0.0980 -0.0000 -0.9952
vn 0.2903 -0.0000 -0.9569
vn 0.4714 -0.0000 -0.8819
vn 0.6344 -0.0000 -0.7730
vn 0.7730 -0.0000 -0.6344
vn 0.8819 -0.0000 -0.4714
vn -0.0000 1.0000 -0.0000
vn 0.9569 -0.0000 -0.2903
vn 0.9952 -0.0000 -0.0980
vn -0.9996 0.0233 -0.0187
vn 0.9832 0.0665 0.1699
vn 0.9916 -0.0755 -0.1053
vn -0.9908 -0.0704 0.1158
vn -0.9916 -0.0755 -0.1053
vn 0.9908 -0.0704 0.1158
vn 0.9973 0.0233 0.0701
vn -0.9697 0.0514 0.2387
vn -0.9555 0.0789 -0.2843
vn 0.8847 0.1090 0.4532
vn 0.9555 0.0789 -0.2843
vn -0.8847 0.1090 0.4532
vn 0.9996 -0.0053 0.0265
vn -0.9953 -0.0053 -0.0969
vn -0.9996 -0.0053 0.0265
vn 0.9953 -0.0053 -0.0969
vn -0.9962 0.0231 0.0844
vn 0.9962 0.0231 0.0844
vn -0.0000 1.0000 -0.0001
vn -0.0000 1.0000 0.0001
vt 0.045219 0.094370
vt 0.090557 0.905617
vt 0.045342 0.999983
vt 0.168355 0.267337
vt 0.122574 0.565983
vt 0.090677 0.000008
vt 0.147483 0.267337
vt 0.143446 0.565983
vt 0.099027 0.000000
vt 0.045420 0.999987
vt 0.000081 0.000000
vt 0.000259 0.999990
vt 0.167277 0.222224
vt 0.119058 0.999800
vt 0.045593 0.000000
vt 0.100342 1.000000
vt 0.148560 0.222224
vt 0.119058 0.113197
vt 0.045109 0.547217
vt 0.090677 0.547291
vt 0.045342 0.452764
vt 0.146961 0.113197
vt 0.090451 0.452777
vt 0.119058 0.546988
vt 0.000000 0.547231
vt 0.157919 0.222224
vt 0.109700 0.999900
vt 0.133010 0.565983
vt 0.157919 0.267337
vt 0.133010 0.113197
vt 0.104868 0.547139
vt 0.168877 0.244780
vt 0.022779 0.999991
vt 0.026387 0.029007
vt 0.071681 0.970970
vt 0.146961 0.244780
vt 0.068115 0.000000
vt 0.022604 0.547212
vt 0.067944 0.452781
vt 0.157919 0.244780
vt 0.097608 0.320810
vt 0.045440 0.679193
vt 0.090637 0.679225
vt 0.045301 0.320761
vt 0.000102 0.320796
vt 0.107295 0.320707
vt 0.102451 0.320759
vt 0.022522 0.320821
vt 0.067864 0.679172
vt 0.122052 0.339590
vt 0.045249 0.773594
vt 0.090587 0.226398
vt 0.143967 0.339590
vt 0.000177 0.773599
vt 0.116642 0.773420
vt 0.097926 0.773620
vt 0.045513 0.226392
vt 0.107284 0.773520
vt 0.133010 0.339590
vt 0.068024 0.226389
vt 0.022686 0.773603
vt 0.096399 0.207620
vt 0.045400 0.792389
vt 0.090597 0.792421
vt 0.045260 0.207566
vt 0.000061 0.207601
vt 0.106087 0.207517
vt 0.101243 0.207568
vt 0.022481 0.207626
vt 0.067825 0.792368
vt 0.133010 0.000000
vt 0.045342 0.433957
vt 0.090677 0.566029
vt 0.108503 0.433897
vt 0.000143 0.433992
vt 0.103659 0.433949
vt 0.022563 0.434017
vt 0.067904 0.565976
vt 0.045480 0.565997
vt 0.098816 0.434001
vt 0.045474 0.339588
vt 0.096718 0.660429
vt 0.122052 0.226393
vt 0.045208 0.660399
vt 0.143967 0.226393
vt 0.090548 0.339593
vt 0.000136 0.660403
vt 0.115434 0.660230
vt 0.106076 0.660329
vt 0.133010 0.226393
vt 0.067984 0.339585
vt 0.022645 0.660408
vt 0.045290 0.886790
vt 0.122052 0.452787
vt 0.143967 0.452787
vt 0.090627 0.113202
vt 0.117850 0.886610
vt 0.000218 0.886794
vt 0.108492 0.886710
vt 0.133010 0.452787
vt 0.068063 0.113193
vt 0.022727 0.886799
vt 0.045553 0.113196
vt 0.099134 0.886810
vt 0.095305 0.603843
vt 0.045438 0.396182
vt 0.123366 0.169795
vt 0.045214 0.603795
vt 0.090553 0.396197
vt 0.142653 0.169795
vt 0.000099 0.603810
vt 0.115638 0.603626
vt 0.105472 0.603734
vt 0.133010 0.169795
vt 0.067964 0.396183
vt 0.022624 0.603810
vt 0.258073 0.039147
vt 0.146961 0.161196
vt 0.146961 0.050084
vt 0.272038 0.039146
vt 0.258078 0.050057
vt 0.149096 0.150463
vt 0.272043 0.050055
vt 0.146961 0.061028
vt 0.258093 0.060589
vt 0.153284 0.140352
vt 0.272058 0.060588
vt 0.149096 0.071761
vt 0.258117 0.070340
vt 0.159364 0.131253
vt 0.272082 0.070339
vt 0.153284 0.081872
vt 0.272038 0.157869
vt 0.258149 0.078934
vt 0.167102 0.123515
vt 0.272114 0.078933
vt 0.286004 0.157869
vt 0.159364 0.090971
vt 0.272038 0.166329
vt 0.176201 0.117435
vt 0.286004 0.166329
vt 0.167102 0.098709
vt 0.272038 0.175980
vt 0.186312 0.113247
vt 0.286004 0.175980
vt 0.176201 0.104789
vt 0.272038 0.186453
vt 0.197045 0.111112
vt 0.286004 0.186453
vt 0.186312 0.108977
vt 0.272038 0.197343
vt 0.207989 0.111112
vt 0.286004 0.197343
vt 0.197045 0.111112
vt 0.272038 0.208234
vt 0.218722 0.113247
vt 0.286004 0.208234
vt 0.207989 0.111112
vt 0.272038 0.218707
vt 0.228833 0.117435
vt 0.286004 0.218707
vt 0.218722 0.108977
vt 0.272038 0.228358
vt 0.237932 0.123515
vt 0.286004 0.228358
vt 0.228833 0.104789
vt 0.258139 0.078934
vt 0.272038 0.236818
vt 0.245670 0.131253
vt 0.286004 0.236818
vt 0.272105 0.078935
vt 0.237932 0.098709
vt 0.258111 0.087525
vt 0.251750 0.140352
vt 0.272076 0.087526
vt 0.245670 0.090971
vt 0.258090 0.097273
vt 0.255938 0.150463
vt 0.272056 0.097274
vt 0.251750 0.081872
vt 0.258077 0.107804
vt 0.258073 0.161196
vt 0.272043 0.107805
vt 0.255938 0.071761
vt 0.258073 0.118713
vt 0.258073 0.172140
vt 0.272038 0.118714
vt 0.258073 0.061028
vt 0.258077 0.129581
vt 0.255938 0.182873
vt 0.272043 0.129583
vt 0.258073 0.050084
vt 0.258090 0.139991
vt 0.251750 0.192984
vt 0.272056 0.139992
vt 0.255938 0.039351
vt 0.258111 0.149543
vt 0.245670 0.202083
vt 0.272076 0.149544
vt 0.251750 0.029240
vt 0.258139 0.157868
vt 0.237932 0.209821
vt 0.272038 0.157869
vt 0.245670 0.020141
vt 0.258073 0.166329
vt 0.228833 0.215901
vt 0.272038 0.166329
vt 0.237932 0.012403
vt 0.258073 0.175980
vt 0.218722 0.220089
vt 0.272038 0.175980
vt 0.228833 0.006323
vt 0.258073 0.186453
vt 0.207989 0.222224
vt 0.272038 0.186453
vt 0.218722 0.002135
vt 0.258073 0.197343
vt 0.197045 0.222224
vt 0.272038 0.197343
vt 0.207989 0.000000
vt 0.258073 0.208234
vt 0.186312 0.220089
vt 0.272038 0.208234
vt 0.197045 0.000000
vt 0.258073 0.218707
vt 0.176201 0.215901
vt 0.272038 0.218707
vt 0.186312 0.002135
vt 0.258073 0.228358
vt 0.167102 0.209821
vt 0.272038 0.228358
vt 0.176201 0.006323
vt 0.258149 0.000001
vt 0.258073 0.236818
vt 0.159364 0.202083
vt 0.272038 0.236818
vt 0.272114 0.000000
vt 0.167102 0.012403
vt 0.258117 0.008323
vt 0.153284 0.192984
vt 0.272082 0.008322
vt 0.159364 0.020141
vt 0.258093 0.017871
vt 0.149096 0.182873
vt 0.153284 0.029240
vt 0.272058 0.017870
vt 0.258078 0.028279
vt 0.146961 0.172140
vt 0.149096 0.039351
vt 0.272043 0.028278
s 0
usemtl Material.001
f 16/35/1 35/63/1 40/70/1
f 38/68/2 4/9/2 37/67/2
f 20/40/3 3/7/3 17/36/3
f 39/69/4 1/1/4 36/65/4
f 18/38/5 64/108/5 70/116/5
f 13/30/6 65/110/6 68/114/6
f 14/31/2 66/112/2 67/113/2
f 19/39/7 63/106/7 69/115/7
f 63/105/2 14/31/2 67/113/2
f 64/107/6 13/30/6 68/114/6
f 2/4/3 20/40/3 15/32/3
f 35/62/2 4/9/2 38/68/2
f 5/13/3 20/40/3 11/26/3
f 65/109/8 19/39/8 69/115/8
f 66/111/9 18/38/9 70/116/9
f 37/66/10 16/34/10 39/69/10
f 20/40/3 6/17/3 11/26/3
f 1/2/11 40/70/11 36/64/11
f 22/43/11 45/78/11 41/73/11
f 23/45/12 44/77/12 42/75/12
f 21/41/2 43/76/2 46/80/2
f 25/48/4 41/72/4 44/77/4
f 24/47/2 42/74/2 43/76/2
f 26/49/13 46/79/13 45/78/13
f 29/54/14 61/102/14 57/98/14
f 28/52/15 60/101/15 56/96/15
f 27/50/6 59/100/6 55/94/6
f 30/56/2 58/99/2 62/104/2
f 33/60/16 62/103/16 60/101/16
f 31/58/2 57/97/2 58/99/2
f 32/59/6 56/95/6 59/100/6
f 34/61/17 55/93/17 61/102/17
f 36/64/18 26/49/18 22/43/18
f 37/66/12 25/48/12 23/45/12
f 35/62/2 24/47/2 21/41/2
f 39/69/19 22/44/19 25/48/19
f 38/68/2 23/46/2 24/47/2
f 40/70/13 21/42/13 26/49/13
f 45/78/20 8/21/20 19/39/20
f 14/31/2 42/74/2 10/24/2
f 13/30/6 41/71/6 9/22/6
f 44/77/21 7/19/21 18/38/21
f 7/18/6 41/71/6 13/30/6
f 46/80/2 14/31/2 8/20/2
f 10/25/22 44/77/22 18/38/22
f 9/23/23 45/78/23 19/39/23
f 50/87/14 34/61/14 29/54/14
f 49/86/15 33/60/15 28/52/15
f 48/83/6 32/59/6 27/50/6
f 47/82/2 31/58/2 30/56/2
f 53/91/16 30/57/16 33/60/16
f 51/89/2 29/55/2 31/58/2
f 52/90/6 28/53/6 32/59/6
f 54/92/17 27/51/17 34/61/17
f 15/33/24 55/93/24 2/3/24
f 59/100/6 3/8/6 12/28/6
f 58/99/2 5/14/2 11/27/2
f 17/37/25 62/103/25 6/15/25
f 62/104/2 11/27/2 6/16/2
f 2/5/6 59/100/6 12/28/6
f 56/96/26 17/37/26 3/6/26
f 57/98/27 15/33/27 5/12/27
f 66/111/28 54/92/28 50/87/28
f 49/86/15 69/115/15 53/91/15
f 64/107/6 52/90/6 48/83/6
f 47/82/2 67/113/2 51/89/2
f 53/91/29 63/106/29 47/81/29
f 67/113/2 50/88/2 51/89/2
f 52/90/6 65/110/6 49/85/6
f 70/116/17 48/84/17 54/92/17
f 72/120/30 73/121/30 71/117/30
f 74/123/31 75/125/31 73/121/31
f 76/127/32 77/129/32 75/125/32
f 78/131/33 79/134/33 77/129/33
f 80/137/34 81/139/34 79/133/34
f 82/141/35 83/143/35 81/139/35
f 84/145/36 85/147/36 83/143/36
f 86/149/37 87/151/37 85/147/37
f 88/153/38 89/155/38 87/151/38
f 90/157/39 91/159/39 89/155/39
f 92/161/40 93/163/40 91/159/40
f 94/165/41 95/168/41 93/163/41
f 96/171/42 97/173/42 95/167/42
f 98/175/43 99/177/43 97/173/43
f 100/179/44 101/181/44 99/177/44
f 102/183/45 103/185/45 101/181/45
f 104/187/46 105/189/46 103/185/46
f 106/191/47 107/193/47 105/189/47
f 108/195/48 109/197/48 107/193/48
f 110/199/49 111/201/49 109/197/49
f 112/203/50 113/205/50 111/201/50
f 114/207/51 115/209/51 113/205/51
f 116/211/52 117/213/52 115/209/52
f 118/215/53 119/217/53 117/213/53
f 120/219/54 121/221/54 119/217/54
f 122/223/55 123/225/55 121/221/55
f 124/227/56 125/229/56 123/225/56
f 126/231/57 127/234/57 125/229/57
f 128/237/58 129/239/58 127/233/58
f 130/241/59 131/243/59 129/239/59
f 108/196/60 92/162/60 76/128/60
f 132/246/61 133/247/61 131/243/61
f 134/250/62 71/117/62 133/247/62
f 101/182/3 117/214/3 133/248/3
f 16/35/63 4/10/63 35/63/63
f 20/40/3 12/29/3 3/7/3
f 39/69/64 16/34/64 1/1/64
f 18/38/65 7/19/65 64/108/65
f 13/30/6 9/22/6 65/110/6
f 14/31/2 10/24/2 66/112/2
f 19/39/66 8/21/66 63/106/66
f 63/105/2 8/20/2 14/31/2
f 64/107/6 7/18/6 13/30/6
f 2/4/3 12/29/3 20/40/3
f 5/13/3 15/32/3 20/40/3
f 65/109/67 9/23/67 19/39/67
f 66/111/68 10/25/68 18/38/68
f 37/66/69 4/11/69 16/34/69
f 20/40/3 17/36/3 6/17/3
f 1/2/70 16/35/70 40/70/70
f 22/43/11 26/49/11 45/78/11
f 23/45/12 25/48/12 44/77/12
f 21/41/2 24/47/2 43/76/2
f 25/48/4 22/44/4 41/72/4
f 24/47/2 23/46/2 42/74/2
f 26/49/13 21/42/13 46/79/13
f 29/54/14 34/61/14 61/102/14
f 28/52/15 33/60/15 60/101/15
f 27/50/6 32/59/6 59/100/6
f 30/56/2 31/58/2 58/99/2
f 33/60/16 30/57/16 62/103/16
f 31/58/2 29/55/2 57/97/2
f 32/59/6 28/53/6 56/95/6
f 34/61/17 27/51/17 55/93/17
f 36/64/11 40/70/11 26/49/11
f 37/66/12 39/69/12 25/48/12
f 35/62/2 38/68/2 24/47/2
f 39/69/4 36/65/4 22/44/4
f 38/68/2 37/67/2 23/46/2
f 40/70/13 35/63/13 21/42/13
f 45/78/71 46/79/71 8/21/71
f 14/31/2 43/76/2 42/74/2
f 44/77/72 41/72/72 7/19/72
f 46/80/2 43/76/2 14/31/2
f 10/25/73 42/75/73 44/77/73
f 9/23/74 41/73/74 45/78/74
f 50/87/14 54/92/14 34/61/14
f 49/86/15 53/91/15 33/60/15
f 48/83/6 52/90/6 32/59/6
f 47/82/2 51/89/2 31/58/2
f 53/91/16 47/81/16 30/57/16
f 51/89/2 50/88/2 29/55/2
f 52/90/6 49/85/6 28/53/6
f 54/92/17 48/84/17 27/51/17
f 15/33/75 61/102/75 55/93/75
f 59/100/6 56/95/6 3/8/6
f 58/99/2 57/97/2 5/14/2
f 17/37/76 60/101/76 62/103/76
f 62/104/2 58/99/2 11/27/2
f 2/5/6 55/94/6 59/100/6
f 56/96/77 60/101/77 17/37/77
f 57/98/78 61/102/78 15/33/78
f 66/111/9 70/116/9 54/92/9
f 49/86/79 65/109/79 69/115/79
f 64/107/6 68/114/6 52/90/6
f 47/82/2 63/105/2 67/113/2
f 53/91/7 69/115/7 63/106/7
f 67/113/2 66/112/2 50/88/2
f 52/90/6 68/114/6 65/110/6
f 70/116/80 64/108/80 48/84/80
f 72/120/30 74/123/30 73/121/30
f 74/123/31 76/127/31 75/125/31
f 76/127/32 78/131/32 77/129/32
f 78/131/33 80/136/33 79/134/33
f 80/137/34 82/141/34 81/139/34
f 82/141/35 84/145/35 83/143/35
f 84/145/36 86/149/36 85/147/36
f 86/149/37 88/153/37 87/151/37
f 88/153/38 90/157/38 89/155/38
f 90/157/39 92/161/39 91/159/39
f 92/161/40 94/165/40 93/163/40
f 94/165/41 96/170/41 95/168/41
f 96/171/42 98/175/42 97/173/42
f 98/175/43 100/179/43 99/177/43
f 100/179/44 102/183/44 101/181/44
f 102/183/45 104/187/45 103/185/45
f 104/187/46 106/191/46 105/189/46
f 106/191/47 108/195/47 107/193/47
f 108/195/48 110/199/48 109/197/48
f 110/199/49 112/203/49 111/201/49
f 112/203/50 114/207/50 113/205/50
f 114/207/51 116/211/51 115/209/51
f 116/211/52 118/215/52 117/213/52
f 118/215/53 120/219/53 119/217/53
f 120/219/54 122/223/54 121/221/54
f 122/223/55 124/227/55 123/225/55
f 124/227/56 126/231/56 125/229/56
f 126/231/57 128/236/57 127/234/57
f 128/237/58 130/241/58 129/239/58
f 130/241/59 132/246/59 131/243/59
f 76/128/60 74/124/60 72/119/60
f 72/119/60 134/249/60 76/128/60
f 134/249/60 132/245/60 76/128/60
f 132/245/60 130/242/60 128/238/60
f 128/238/60 126/232/60 124/228/60
f 124/228/81 122/224/81 120/220/81
f 120/220/60 118/216/60 124/228/60
f 118/216/60 116/212/60 124/228/60
f 116/212/60 114/208/60 112/204/60
f 112/204/60 110/200/60 108/196/60
f 108/196/60 106/192/60 100/180/60
f 106/192/60 104/188/60 100/180/60
f 104/188/60 102/184/60 100/180/60
f 100/180/60 98/176/60 96/172/60
f 96/172/60 94/166/60 92/162/60
f 92/162/60 90/158/60 84/146/60
f 90/158/60 88/154/60 84/146/60
f 88/154/82 86/150/82 84/146/82
f 84/146/60 82/142/60 80/138/60
f 80/138/60 78/132/60 76/128/60
f 132/245/60 128/238/60 76/128/60
f 128/238/60 124/228/60 76/128/60
f 116/212/60 112/204/60 124/228/60
f 112/204/60 108/196/60 124/228/60
f 100/180/60 96/172/60 108/196/60
f 96/172/60 92/162/60 108/196/60
f 84/146/60 80/138/60 92/162/60
f 80/138/60 76/128/60 92/162/60
f 76/128/60 124/228/60 108/196/60
f 132/246/61 134/250/61 133/247/61
f 134/250/62 72/120/62 71/117/62
f 133/248/3 71/118/3 73/122/3
f 73/122/3 75/126/3 77/130/3
f 77/130/3 79/135/3 81/140/3
f 81/140/3 83/144/3 85/148/3
f 85/148/3 87/152/3 89/156/3
f 89/156/3 91/160/3 93/164/3
f 93/164/3 95/169/3 97/174/3
f 97/174/3 99/178/3 101/182/3
f 101/182/3 103/186/3 105/190/3
f 105/190/3 107/194/3 109/198/3
f 109/198/3 111/202/3 113/206/3
f 113/206/3 115/210/3 117/214/3
f 117/214/3 119/218/3 121/222/3
f 121/222/3 123/226/3 125/230/3
f 125/230/3 127/235/3 129/240/3
f 129/240/3 131/244/3 133/248/3
f 133/248/3 73/122/3 85/148/3
f 73/122/3 77/130/3 85/148/3
f 77/130/3 81/140/3 85/148/3
f 85/148/3 89/156/3 101/182/3
f 89/156/3 93/164/3 101/182/3
f 93/164/3 97/174/3 101/182/3
f 101/182/3 105/190/3 117/214/3
f 105/190/3 109/198/3 117/214/3
f 109/198/3 113/206/3 117/214/3
f 117/214/3 121/222/3 133/248/3
f 121/222/3 125/230/3 133/248/3
f 125/230/3 129/240/3 133/248/3
f 133/248/3 85/148/3 101/182/3
