# Blender 3.5.0
# www.blender.org
mtllib bowl2.mtl
o Cube
v 1.000000 1.000000 -1.000000
v 1.000000 -1.000000 -1.000000
v 1.000000 1.000000 1.000000
v 1.000000 -1.000000 1.000000
v -1.000000 1.000000 -1.000000
v -1.000000 -1.000000 -1.000000
v -1.000000 1.000000 1.000000
v -1.000000 -1.000000 1.000000
vn -0.0000 1.0000 -0.0000
vn -0.0000 -0.0000 1.0000
vn -1.0000 -0.0000 -0.0000
vn -0.0000 -1.0000 -0.0000
vn 1.0000 -0.0000 -0.0000
vn -0.0000 -0.0000 -1.0000
vt 0.625000 0.500000
vt 0.375000 0.500000
vt 0.625000 0.750000
vt 0.375000 0.750000
vt 0.875000 0.500000
vt 0.625000 0.250000
vt 0.125000 0.500000
vt 0.375000 0.250000
vt 0.875000 0.750000
vt 0.625000 1.000000
vt 0.625000 0.000000
vt 0.375000 0.000000
vt 0.375000 1.000000
vt 0.125000 0.750000
s 0
usemtl Material
f 5/5/1 3/3/1 1/1/1
f 3/3/2 8/13/2 4/4/2
f 7/11/3 6/8/3 8/12/3
f 2/2/4 8/14/4 6/7/4
f 1/1/5 4/4/5 2/2/5
f 5/6/6 2/2/6 6/8/6
f 5/5/1 7/9/1 3/3/1
f 3/3/2 7/10/2 8/13/2
f 7/11/3 5/6/3 6/8/3
f 2/2/4 4/4/4 8/14/4
f 1/1/5 3/3/5 4/4/5
f 5/6/6 1/1/6 2/2/6
o ICO球
v 7.000000 -1.000000 0.000000
v 7.723607 -0.447220 0.525725
v 6.723612 -0.447220 0.850649
v 6.105574 -0.447216 0.000000
v 6.723612 -0.447220 -0.850649
v 7.723607 -0.447220 -0.525725
v 7.276388 0.447220 0.850649
v 6.276393 0.447220 0.525725
v 6.276393 0.447220 -0.525725
v 7.276388 0.447220 -0.850649
v 7.894426 0.447216 0.000000
v 7.000000 1.000000 0.000000
v 6.837544 -0.850654 0.499995
v 7.425323 -0.850654 0.309011
v 7.262869 -0.525738 0.809012
v 7.850648 -0.525736 0.000000
v 7.425323 -0.850654 -0.309011
v 6.474270 -0.850652 0.000000
v 6.311810 -0.525736 0.499997
v 6.837544 -0.850654 -0.499995
v 6.311810 -0.525736 -0.499997
v 7.262869 -0.525738 -0.809012
v 7.951058 0.000000 0.309013
v 7.951058 0.000000 -0.309013
v 7.000000 0.000000 1.000000
v 7.587786 0.000000 0.809017
v 6.048942 0.000000 0.309013
v 6.412214 0.000000 0.809017
v 6.412214 0.000000 -0.809017
v 6.048942 0.000000 -0.309013
v 7.587786 0.000000 -0.809017
v 7.000000 0.000000 -1.000000
v 7.688190 0.525736 0.499997
v 6.737131 0.525738 0.809012
v 6.149352 0.525736 0.000000
v 6.737131 0.525738 -0.809012
v 7.688190 0.525736 -0.499997
v 7.162456 0.850654 0.499995
v 7.525730 0.850652 0.000000
v 6.574677 0.850654 0.309011
v 6.574677 0.850654 -0.309011
v 7.162456 0.850654 -0.499995
vn 0.1024 -0.9435 0.3151
vn 0.7002 -0.6617 0.2680
vn -0.2680 -0.9435 0.1947
vn -0.2680 -0.9435 -0.1947
vn 0.1024 -0.9435 -0.3151
vn 0.9050 -0.3304 0.2680
vn 0.0247 -0.3304 0.9435
vn -0.8897 -0.3304 0.3151
vn -0.5746 -0.3304 -0.7488
vn 0.5346 -0.3304 -0.7779
vn 0.8026 -0.1256 0.5831
vn -0.3066 -0.1256 0.9435
vn -0.9921 -0.1256 -0.0000
vn -0.3066 -0.1256 -0.9435
vn 0.8026 -0.1256 -0.5831
vn 0.4089 0.6617 0.6284
vn -0.4713 0.6617 0.5831
vn -0.7002 0.6617 -0.2680
vn 0.0385 0.6617 -0.7488
vn 0.7240 0.6617 -0.1947
vn 0.2680 0.9435 -0.1947
vn 0.4911 0.7947 -0.3568
vn 0.4089 0.6617 -0.6284
vn -0.1024 0.9435 -0.3151
vn -0.1876 0.7947 -0.5773
vn -0.4713 0.6617 -0.5831
vn -0.3313 0.9435 -0.0000
vn -0.6071 0.7947 -0.0000
vn -0.7002 0.6617 0.2680
vn -0.1024 0.9435 0.3151
vn -0.1876 0.7947 0.5773
vn 0.0385 0.6617 0.7488
vn 0.2680 0.9435 0.1947
vn 0.4911 0.7947 0.3568
vn 0.7240 0.6617 0.1947
vn 0.8897 0.3304 -0.3151
vn 0.7947 0.1876 -0.5773
vn 0.5746 0.3304 -0.7488
vn -0.0247 0.3304 -0.9435
vn -0.3035 0.1876 -0.9342
vn -0.5346 0.3304 -0.7779
vn -0.9050 0.3304 -0.2680
vn -0.9822 0.1876 -0.0000
vn -0.9050 0.3304 0.2680
vn -0.5346 0.3304 0.7779
vn -0.3035 0.1876 0.9342
vn -0.0247 0.3304 0.9435
vn 0.5746 0.3304 0.7488
vn 0.7947 0.1876 0.5773
vn 0.8897 0.3304 0.3151
vn 0.3066 0.1256 -0.9435
vn 0.3035 -0.1876 -0.9342
vn 0.0247 -0.3304 -0.9435
vn -0.8026 0.1256 -0.5831
vn -0.7947 -0.1876 -0.5773
vn -0.8897 -0.3304 -0.3151
vn -0.8026 0.1256 0.5831
vn -0.7947 -0.1876 0.5773
vn -0.5746 -0.3304 0.7488
vn 0.3066 0.1256 0.9435
vn 0.3035 -0.1876 0.9342
vn 0.5346 -0.3304 0.7779
vn 0.9921 0.1256 -0.0000
vn 0.9822 -0.1876 -0.0000
vn 0.9050 -0.3304 -0.2680
vn 0.4713 -0.6617 -0.5831
vn 0.1876 -0.7947 -0.5773
vn -0.0385 -0.6617 -0.7488
vn -0.4089 -0.6617 -0.6284
vn -0.4911 -0.7947 -0.3568
vn -0.7240 -0.6617 -0.1947
vn -0.7240 -0.6617 0.1947
vn -0.4911 -0.7947 0.3568
vn -0.4089 -0.6617 0.6284
vn 0.7002 -0.6617 -0.2680
vn 0.6071 -0.7947 -0.0000
vn 0.3313 -0.9435 -0.0000
vn -0.0385 -0.6617 0.7488
vn 0.1876 -0.7947 0.5773
vn 0.4713 -0.6617 0.5831
vt 0.181819 0.000000
vt 0.909091 0.000000
vt 0.727273 0.000000
vt 0.545455 0.000000
vt 0.363637 0.000000
vt 0.272728 0.157461
vt 1.000000 0.157461
vt 0.090910 0.157461
vt 0.818182 0.157461
vt 0.636364 0.157461
vt 0.454546 0.157461
vt 0.181819 0.314921
vt 0.000000 0.314921
vt 0.909091 0.314921
vt 0.727273 0.314921
vt 0.545455 0.314921
vt 0.363637 0.314921
vt 0.454546 0.472382
vt 0.636364 0.472382
vt 0.818182 0.472382
vt 0.090910 0.472382
vt 0.272728 0.472382
vt 0.954545 0.078731
vt 0.136365 0.078731
vt 0.318182 0.078731
vt 0.227273 0.078731
vt 0.181819 0.157461
vt 0.363637 0.157461
vt 0.500000 0.078731
vt 0.409092 0.078731
vt 0.772727 0.078731
vt 0.863636 0.078731
vt 0.909091 0.157461
vt 0.590909 0.078731
vt 0.681818 0.078731
vt 0.727273 0.157461
vt 0.545455 0.157461
vt 0.318182 0.236191
vt 0.409092 0.236191
vt 0.136365 0.236191
vt 0.227273 0.236191
vt 0.863636 0.236191
vt 0.045455 0.236191
vt 0.954545 0.236191
vt 0.681818 0.236191
vt 0.772727 0.236191
vt 0.500000 0.236191
vt 0.590909 0.236191
vt 0.272728 0.314921
vt 0.090910 0.314921
vt 0.818182 0.314921
vt 0.636364 0.314921
vt 0.454546 0.314921
vt 0.136365 0.393651
vt 0.227273 0.393651
vt 0.409092 0.393651
vt 0.318182 0.393651
vt 0.863636 0.393651
vt 0.045455 0.393651
vt 0.681818 0.393651
vt 0.772727 0.393651
vt 0.500000 0.393651
vt 0.590909 0.393651
s 0
usemtl マテリアル.002
f 9/15/7 22/40/7 21/38/7
f 10/20/8 22/39/8 24/42/8
f 9/16/9 21/37/9 26/46/9
f 9/17/10 26/45/10 28/49/10
f 9/18/11 28/48/11 25/43/11
f 10/20/12 24/42/12 31/52/12
f 11/22/13 23/41/13 33/54/13
f 12/23/14 27/47/14 35/56/14
f 13/24/15 29/50/15 37/59/15
f 14/25/16 30/51/16 39/61/16
f 10/20/17 31/52/17 34/55/17
f 11/22/18 33/54/18 36/57/18
f 12/23/19 35/56/19 38/60/19
f 13/24/20 37/59/20 40/62/20
f 14/25/21 39/61/21 32/53/21
f 15/26/22 41/63/22 46/69/22
f 16/27/23 42/64/23 48/73/23
f 17/29/24 43/65/24 49/75/24
f 18/30/25 44/66/25 50/77/25
f 19/31/26 45/67/26 47/70/26
f 47/70/27 50/76/27 20/32/27
f 47/70/28 45/67/28 50/76/28
f 45/67/29 18/30/29 50/76/29
f 50/77/30 49/74/30 20/33/30
f 50/77/31 44/66/31 49/74/31
f 44/66/32 17/29/32 49/74/32
f 49/75/33 48/72/33 20/34/33
f 49/75/34 43/65/34 48/72/34
f 43/65/35 16/28/35 48/72/35
f 48/73/36 46/68/36 20/35/36
f 48/73/37 42/64/37 46/68/37
f 42/64/38 15/26/38 46/68/38
f 46/69/39 47/71/39 20/36/39
f 46/69/40 41/63/40 47/71/40
f 41/63/41 19/31/41 47/71/41
f 32/53/42 45/67/42 19/31/42
f 32/53/43 39/61/43 45/67/43
f 39/61/44 18/30/44 45/67/44
f 40/62/45 44/66/45 18/30/45
f 40/62/46 37/59/46 44/66/46
f 37/59/47 17/29/47 44/66/47
f 38/60/48 43/65/48 17/29/48
f 38/60/49 35/56/49 43/65/49
f 35/56/50 16/28/50 43/65/50
f 36/57/51 42/64/51 16/27/51
f 36/57/52 33/54/52 42/64/52
f 33/54/53 15/26/53 42/64/53
f 34/55/54 41/63/54 15/26/54
f 34/55/55 31/52/55 41/63/55
f 31/52/56 19/31/56 41/63/56
f 39/61/57 40/62/57 18/30/57
f 39/61/58 30/51/58 40/62/58
f 30/51/59 13/24/59 40/62/59
f 37/59/60 38/60/60 17/29/60
f 37/59/61 29/50/61 38/60/61
f 29/50/62 12/23/62 38/60/62
f 35/56/63 36/58/63 16/28/63
f 35/56/64 27/47/64 36/58/64
f 27/47/65 11/21/65 36/58/65
f 33/54/66 34/55/66 15/26/66
f 33/54/67 23/41/67 34/55/67
f 23/41/68 10/20/68 34/55/68
f 31/52/69 32/53/69 19/31/69
f 31/52/70 24/42/70 32/53/70
f 24/42/71 14/25/71 32/53/71
f 25/43/72 30/51/72 14/25/72
f 25/43/73 28/48/73 30/51/73
f 28/48/74 13/24/74 30/51/74
f 28/49/75 29/50/75 13/24/75
f 28/49/76 26/45/76 29/50/76
f 26/45/77 12/23/77 29/50/77
f 26/46/78 27/47/78 12/23/78
f 26/46/79 21/37/79 27/47/79
f 21/37/80 11/21/80 27/47/80
f 24/42/81 25/44/81 14/25/81
f 24/42/82 22/39/82 25/44/82
f 22/39/83 9/19/83 25/44/83
f 21/38/84 23/41/84 11/22/84
f 21/38/85 22/40/85 23/41/85
f 22/40/86 10/20/86 23/41/86
o ICO球.001
v 0.000000 2.000000 -3.000000
v 0.723607 2.552780 -2.474275
v -0.276388 2.552780 -2.149351
v -0.894426 2.552784 -3.000000
v -0.276388 2.552780 -3.850649
v 0.723607 2.552780 -3.525725
v 0.276388 3.447220 -2.149351
v -0.723607 3.447220 -2.474275
v -0.723607 3.447220 -3.525725
v 0.276388 3.447220 -3.850649
v 0.894426 3.447216 -3.000000
v 0.000000 4.000000 -3.000000
v -0.162456 2.149346 -2.500005
v 0.425323 2.149346 -2.690989
v 0.262869 2.474262 -2.190988
v 0.850648 2.474264 -3.000000
v 0.425323 2.149346 -3.309011
v -0.525730 2.149348 -3.000000
v -0.688189 2.474264 -2.500003
v -0.162456 2.149346 -3.499995
v -0.688189 2.474264 -3.499997
v 0.262869 2.474262 -3.809012
v 0.951058 3.000000 -2.690987
v 0.951058 3.000000 -3.309013
v 0.000000 3.000000 -2.000000
v 0.587786 3.000000 -2.190983
v -0.951058 3.000000 -2.690987
v -0.587786 3.000000 -2.190983
v -0.587786 3.000000 -3.809017
v -0.951058 3.000000 -3.309013
v 0.587786 3.000000 -3.809017
v 0.000000 3.000000 -4.000000
v 0.688189 3.525736 -2.500003
v -0.262869 3.525738 -2.190988
v -0.850648 3.525736 -3.000000
v -0.262869 3.525738 -3.809012
v 0.688189 3.525736 -3.499997
v 0.162456 3.850654 -2.500005
v 0.525730 3.850652 -3.000000
v -0.425323 3.850654 -2.690989
v -0.425323 3.850654 -3.309011
v 0.162456 3.850654 -3.499995
vn 0.1024 -0.9435 0.3151
vn 0.7002 -0.6617 0.2680
vn -0.2680 -0.9435 0.1947
vn -0.2680 -0.9435 -0.1947
vn 0.1024 -0.9435 -0.3151
vn 0.9050 -0.3304 0.2680
vn 0.0247 -0.3304 0.9435
vn -0.8897 -0.3304 0.3151
vn -0.5746 -0.3304 -0.7488
vn 0.5346 -0.3304 -0.7779
vn 0.8026 -0.1256 0.5831
vn -0.3066 -0.1256 0.9435
vn -0.9921 -0.1256 -0.0000
vn -0.3066 -0.1256 -0.9435
vn 0.8026 -0.1256 -0.5831
vn 0.4089 0.6617 0.6284
vn -0.4713 0.6617 0.5831
vn -0.7002 0.6617 -0.2680
vn 0.0385 0.6617 -0.7488
vn 0.7240 0.6617 -0.1947
vn 0.2680 0.9435 -0.1947
vn 0.4911 0.7947 -0.3568
vn 0.4089 0.6617 -0.6284
vn -0.1024 0.9435 -0.3151
vn -0.1876 0.7947 -0.5773
vn -0.4713 0.6617 -0.5831
vn -0.3313 0.9435 -0.0000
vn -0.6071 0.7947 -0.0000
vn -0.7002 0.6617 0.2680
vn -0.1024 0.9435 0.3151
vn -0.1876 0.7947 0.5773
vn 0.0385 0.6617 0.7488
vn 0.2680 0.9435 0.1947
vn 0.4911 0.7947 0.3568
vn 0.7240 0.6617 0.1947
vn 0.8897 0.3304 -0.3151
vn 0.7947 0.1876 -0.5773
vn 0.5746 0.3304 -0.7488
vn -0.0247 0.3304 -0.9435
vn -0.3035 0.1876 -0.9342
vn -0.5346 0.3304 -0.7779
vn -0.9050 0.3304 -0.2680
vn -0.9822 0.1876 -0.0000
vn -0.9050 0.3304 0.2680
vn -0.5346 0.3304 0.7779
vn -0.3035 0.1876 0.9342
vn -0.0247 0.3304 0.9435
vn 0.5746 0.3304 0.7488
vn 0.7947 0.1876 0.5773
vn 0.8897 0.3304 0.3151
vn 0.3066 0.1256 -0.9435
vn 0.3035 -0.1876 -0.9342
vn 0.0247 -0.3304 -0.9435
vn -0.8026 0.1256 -0.5831
vn -0.7947 -0.1876 -0.5773
vn -0.8897 -0.3304 -0.3151
vn -0.8026 0.1256 0.5831
vn -0.7947 -0.1876 0.5773
vn -0.5746 -0.3304 0.7488
vn 0.3066 0.1256 0.9435
vn 0.3035 -0.1876 0.9342
vn 0.5346 -0.3304 0.7779
vn 0.9921 0.1256 -0.0000
vn 0.9822 -0.1876 -0.0000
vn 0.9050 -0.3304 -0.2680
vn 0.4713 -0.6617 -0.5831
vn 0.1876 -0.7947 -0.5773
vn -0.0385 -0.6617 -0.7488
vn -0.4089 -0.6617 -0.6284
vn -0.4911 -0.7947 -0.3568
vn -0.7240 -0.6617 -0.1947
vn -0.7240 -0.6617 0.1947
vn -0.4911 -0.7947 0.3568
vn -0.4089 -0.6617 0.6284
vn 0.7002 -0.6617 -0.2680
vn 0.6071 -0.7947 -0.0000
vn 0.3313 -0.9435 -0.0000
vn -0.0385 -0.6617 0.7488
vn 0.1876 -0.7947 0.5773
vn 0.4713 -0.6617 0.5831
vt 0.181819 0.000000
vt 0.909091 0.000000
vt 0.727273 0.000000
vt 0.545455 0.000000
vt 0.363637 0.000000
vt 0.272728 0.157461
vt 1.000000 0.157461
vt 0.090910 0.157461
vt 0.818182 0.157461
vt 0.636364 0.157461
vt 0.454546 0.157461
vt 0.181819 0.314921
vt 0.000000 0.314921
vt 0.909091 0.314921
vt 0.727273 0.314921
vt 0.545455 0.314921
vt 0.363637 0.314921
vt 0.454546 0.472382
vt 0.636364 0.472382
vt 0.818182 0.472382
vt 0.090910 0.472382
vt 0.272728 0.472382
vt 0.954545 0.078731
vt 0.136365 0.078731
vt 0.318182 0.078731
vt 0.227273 0.078731
vt 0.181819 0.157461
vt 0.363637 0.157461
vt 0.500000 0.078731
vt 0.409092 0.078731
vt 0.772727 0.078731
vt 0.863636 0.078731
vt 0.909091 0.157461
vt 0.590909 0.078731
vt 0.681818 0.078731
vt 0.727273 0.157461
vt 0.545455 0.157461
vt 0.318182 0.236191
vt 0.409092 0.236191
vt 0.136365 0.236191
vt 0.227273 0.236191
vt 0.863636 0.236191
vt 0.045455 0.236191
vt 0.954545 0.236191
vt 0.681818 0.236191
vt 0.772727 0.236191
vt 0.500000 0.236191
vt 0.590909 0.236191
vt 0.272728 0.314921
vt 0.090910 0.314921
vt 0.818182 0.314921
vt 0.636364 0.314921
vt 0.454546 0.314921
vt 0.136365 0.393651
vt 0.227273 0.393651
vt 0.409092 0.393651
vt 0.318182 0.393651
vt 0.863636 0.393651
vt 0.045455 0.393651
vt 0.681818 0.393651
vt 0.772727 0.393651
vt 0.500000 0.393651
vt 0.590909 0.393651
s 0
usemtl マテリアル.001
f 51/78/87 64/103/87 63/101/87
f 52/83/88 64/102/88 66/105/88
f 51/79/89 63/100/89 68/109/89
f 51/80/90 68/108/90 70/112/90
f 51/81/91 70/111/91 67/106/91
f 52/83/92 66/105/92 73/115/92
f 53/85/93 65/104/93 75/117/93
f 54/86/94 69/110/94 77/119/94
f 55/87/95 71/113/95 79/122/95
f 56/88/96 72/114/96 81/124/96
f 52/83/97 73/115/97 76/118/97
f 53/85/98 75/117/98 78/120/98
f 54/86/99 77/119/99 80/123/99
f 55/87/100 79/122/100 82/125/100
f 56/88/101 81/124/101 74/116/101
f 57/89/102 83/126/102 88/132/102
f 58/90/103 84/127/103 90/136/103
f 59/92/104 85/128/104 91/138/104
f 60/93/105 86/129/105 92/140/105
f 61/94/106 87/130/106 89/133/106
f 89/133/107 92/139/107 62/95/107
f 89/133/108 87/130/108 92/139/108
f 87/130/109 60/93/109 92/139/109
f 92/140/110 91/137/110 62/96/110
f 92/140/111 86/129/111 91/137/111
f 86/129/112 59/92/112 91/137/112
f 91/138/113 90/135/113 62/97/113
f 91/138/114 85/128/114 90/135/114
f 85/128/115 58/91/115 90/135/115
f 90/136/116 88/131/116 62/98/116
f 90/136/117 84/127/117 88/131/117
f 84/127/118 57/89/118 88/131/118
f 88/132/119 89/134/119 62/99/119
f 88/132/120 83/126/120 89/134/120
f 83/126/121 61/94/121 89/134/121
f 74/116/122 87/130/122 61/94/122
f 74/116/123 81/124/123 87/130/123
f 81/124/124 60/93/124 87/130/124
f 82/125/125 86/129/125 60/93/125
f 82/125/126 79/122/126 86/129/126
f 79/122/127 59/92/127 86/129/127
f 80/123/128 85/128/128 59/92/128
f 80/123/129 77/119/129 85/128/129
f 77/119/130 58/91/130 85/128/130
f 78/120/131 84/127/131 58/90/131
f 78/120/132 75/117/132 84/127/132
f 75/117/133 57/89/133 84/127/133
f 76/118/134 83/126/134 57/89/134
f 76/118/135 73/115/135 83/126/135
f 73/115/136 61/94/136 83/126/136
f 81/124/137 82/125/137 60/93/137
f 81/124/138 72/114/138 82/125/138
f 72/114/139 55/87/139 82/125/139
f 79/122/140 80/123/140 59/92/140
f 79/122/141 71/113/141 80/123/141
f 71/113/142 54/86/142 80/123/142
f 77/119/143 78/121/143 58/91/143
f 77/119/144 69/110/144 78/121/144
f 69/110/145 53/84/145 78/121/145
f 75/117/146 76/118/146 57/89/146
f 75/117/147 65/104/147 76/118/147
f 65/104/148 52/83/148 76/118/148
f 73/115/149 74/116/149 61/94/149
f 73/115/150 66/105/150 74/116/150
f 66/105/151 56/88/151 74/116/151
f 67/106/152 72/114/152 56/88/152
f 67/106/153 70/111/153 72/114/153
f 70/111/154 55/87/154 72/114/154
f 70/112/155 71/113/155 55/87/155
f 70/112/156 68/108/156 71/113/156
f 68/108/157 54/86/157 71/113/157
f 68/109/158 69/110/158 54/86/158
f 68/109/159 63/100/159 69/110/159
f 63/100/160 53/84/160 69/110/160
f 66/105/161 67/107/161 56/88/161
f 66/105/162 64/102/162 67/107/162
f 64/102/163 51/82/163 67/107/163
f 63/101/164 65/104/164 53/85/164
f 63/101/165 64/103/165 65/104/165
f 64/103/166 52/83/166 65/104/166
o ICO球.002
v 0.000000 3.000000 7.000000
v 0.723607 3.552780 7.525725
v -0.276388 3.552780 7.850649
v -0.894426 3.552784 7.000000
v -0.276388 3.552780 6.149351
v 0.723607 3.552780 6.474275
v 0.276388 4.447220 7.850649
v -0.723607 4.447219 7.525725
v -0.723607 4.447219 6.474275
v 0.276388 4.447220 6.149351
v 0.894426 4.447216 7.000000
v 0.000000 5.000000 7.000000
v -0.162456 3.149346 7.499995
v 0.425323 3.149346 7.309011
v 0.262869 3.474262 7.809011
v 0.850648 3.474264 7.000000
v 0.425323 3.149346 6.690989
v -0.525730 3.149348 7.000000
v -0.688189 3.474264 7.499997
v -0.162456 3.149346 6.500005
v -0.688189 3.474264 6.500003
v 0.262869 3.474262 6.190989
v 0.951058 4.000000 7.309012
v 0.951058 4.000000 6.690988
v 0.000000 4.000000 8.000000
v 0.587786 4.000000 7.809017
v -0.951058 4.000000 7.309012
v -0.587786 4.000000 7.809017
v -0.587786 4.000000 6.190983
v -0.951058 4.000000 6.690988
v 0.587786 4.000000 6.190983
v 0.000000 4.000000 6.000000
v 0.688189 4.525736 7.499997
v -0.262869 4.525738 7.809011
v -0.850648 4.525736 7.000000
v -0.262869 4.525738 6.190989
v 0.688189 4.525736 6.500003
v 0.162456 4.850655 7.499995
v 0.525730 4.850652 7.000000
v -0.425323 4.850654 7.309011
v -0.425323 4.850654 6.690989
v 0.162456 4.850655 6.500005
vn 0.1024 -0.9435 0.3151
vn 0.7002 -0.6617 0.2680
vn -0.2680 -0.9435 0.1947
vn -0.2680 -0.9435 -0.1947
vn 0.1024 -0.9435 -0.3151
vn 0.9050 -0.3304 0.2680
vn 0.0247 -0.3304 0.9435
vn -0.8897 -0.3304 0.3151
vn -0.5746 -0.3304 -0.7488
vn 0.5346 -0.3304 -0.7779
vn 0.8026 -0.1256 0.5831
vn -0.3066 -0.1256 0.9435
vn -0.9921 -0.1256 -0.0000
vn -0.3066 -0.1256 -0.9435
vn 0.8026 -0.1256 -0.5831
vn 0.4089 0.6617 0.6284
vn -0.4713 0.6617 0.5831
vn -0.7002 0.6617 -0.2680
vn 0.0385 0.6617 -0.7488
vn 0.7240 0.6617 -0.1947
vn 0.2680 0.9435 -0.1947
vn 0.4911 0.7947 -0.3568
vn 0.4089 0.6617 -0.6284
vn -0.1024 0.9435 -0.3151
vn -0.1876 0.7947 -0.5773
vn -0.4713 0.6617 -0.5831
vn -0.3313 0.9435 -0.0000
vn -0.6071 0.7947 -0.0000
vn -0.7002 0.6617 0.2680
vn -0.1024 0.9435 0.3151
vn -0.1876 0.7947 0.5773
vn 0.0385 0.6617 0.7488
vn 0.2680 0.9435 0.1947
vn 0.4911 0.7947 0.3568
vn 0.7240 0.6617 0.1947
vn 0.8897 0.3304 -0.3151
vn 0.7947 0.1876 -0.5773
vn 0.5746 0.3304 -0.7488
vn -0.0247 0.3304 -0.9435
vn -0.3035 0.1876 -0.9342
vn -0.5346 0.3304 -0.7779
vn -0.9050 0.3304 -0.2680
vn -0.9822 0.1876 -0.0000
vn -0.9050 0.3304 0.2680
vn -0.5346 0.3304 0.7779
vn -0.3035 0.1876 0.9342
vn -0.0247 0.3304 0.9435
vn 0.5746 0.3304 0.7488
vn 0.7947 0.1876 0.5773
vn 0.8897 0.3304 0.3151
vn 0.3066 0.1256 -0.9435
vn 0.3035 -0.1876 -0.9342
vn 0.0247 -0.3304 -0.9435
vn -0.8026 0.1256 -0.5831
vn -0.7947 -0.1876 -0.5773
vn -0.8897 -0.3304 -0.3151
vn -0.8026 0.1256 0.5831
vn -0.7947 -0.1876 0.5773
vn -0.5746 -0.3304 0.7488
vn 0.3066 0.1256 0.9435
vn 0.3035 -0.1876 0.9342
vn 0.5346 -0.3304 0.7779
vn 0.9921 0.1256 -0.0000
vn 0.9822 -0.1876 -0.0000
vn 0.9050 -0.3304 -0.2680
vn 0.4713 -0.6617 -0.5831
vn 0.1876 -0.7947 -0.5773
vn -0.0385 -0.6617 -0.7488
vn -0.4089 -0.6617 -0.6284
vn -0.4911 -0.7947 -0.3568
vn -0.7240 -0.6617 -0.1947
vn -0.7240 -0.6617 0.1947
vn -0.4911 -0.7947 0.3568
vn -0.4089 -0.6617 0.6284
vn 0.7002 -0.6617 -0.2680
vn 0.6071 -0.7947 -0.0000
vn 0.3313 -0.9435 -0.0000
vn -0.0385 -0.6617 0.7488
vn 0.1876 -0.7947 0.5773
vn 0.4713 -0.6617 0.5831
vt 0.181819 0.000000
vt 0.909091 0.000000
vt 0.727273 0.000000
vt 0.545455 0.000000
vt 0.363637 0.000000
vt 0.272728 0.157461
vt 1.000000 0.157461
vt 0.090910 0.157461
vt 0.818182 0.157461
vt 0.636364 0.157461
vt 0.454546 0.157461
vt 0.181819 0.314921
vt 0.000000 0.314921
vt 0.909091 0.314921
vt 0.727273 0.314921
vt 0.545455 0.314921
vt 0.363637 0.314921
vt 0.454546 0.472382
vt 0.636364 0.472382
vt 0.818182 0.472382
vt 0.090910 0.472382
vt 0.272728 0.472382
vt 0.954545 0.078731
vt 0.136365 0.078731
vt 0.318182 0.078731
vt 0.227273 0.078731
vt 0.181819 0.157461
vt 0.363637 0.157461
vt 0.500000 0.078731
vt 0.409092 0.078731
vt 0.772727 0.078731
vt 0.863636 0.078731
vt 0.909091 0.157461
vt 0.590909 0.078731
vt 0.681818 0.078731
vt 0.727273 0.157461
vt 0.545455 0.157461
vt 0.318182 0.236191
vt 0.409092 0.236191
vt 0.136365 0.236191
vt 0.227273 0.236191
vt 0.863636 0.236191
vt 0.045455 0.236191
vt 0.954545 0.236191
vt 0.681818 0.236191
vt 0.772727 0.236191
vt 0.500000 0.236191
vt 0.590909 0.236191
vt 0.272728 0.314921
vt 0.090910 0.314921
vt 0.818182 0.314921
vt 0.636364 0.314921
vt 0.454546 0.314921
vt 0.136365 0.393651
vt 0.227273 0.393651
vt 0.409092 0.393651
vt 0.318182 0.393651
vt 0.863636 0.393651
vt 0.045455 0.393651
vt 0.681818 0.393651
vt 0.772727 0.393651
vt 0.500000 0.393651
vt 0.590909 0.393651
s 0
usemtl マテリアル
f 93/141/167 106/166/167 105/164/167
f 94/146/168 106/165/168 108/168/168
f 93/142/169 105/163/169 110/172/169
f 93/143/170 110/171/170 112/175/170
f 93/144/171 112/174/171 109/169/171
f 94/146/172 108/168/172 115/178/172
f 95/148/173 107/167/173 117/180/173
f 96/149/174 111/173/174 119/182/174
f 97/150/175 113/176/175 121/185/175
f 98/151/176 114/177/176 123/187/176
f 94/146/177 115/178/177 118/181/177
f 95/148/178 117/180/178 120/183/178
f 96/149/179 119/182/179 122/186/179
f 97/150/180 121/185/180 124/188/180
f 98/151/181 123/187/181 116/179/181
f 99/152/182 125/189/182 130/195/182
f 100/153/183 126/190/183 132/199/183
f 101/155/184 127/191/184 133/201/184
f 102/156/185 128/192/185 134/203/185
f 103/157/186 129/193/186 131/196/186
f 131/196/187 134/202/187 104/158/187
f 131/196/188 129/193/188 134/202/188
f 129/193/189 102/156/189 134/202/189
f 134/203/190 133/200/190 104/159/190
f 134/203/191 128/192/191 133/200/191
f 128/192/192 101/155/192 133/200/192
f 133/201/193 132/198/193 104/160/193
f 133/201/194 127/191/194 132/198/194
f 127/191/195 100/154/195 132/198/195
f 132/199/196 130/194/196 104/161/196
f 132/199/197 126/190/197 130/194/197
f 126/190/198 99/152/198 130/194/198
f 130/195/199 131/197/199 104/162/199
f 130/195/200 125/189/200 131/197/200
f 125/189/201 103/157/201 131/197/201
f 116/179/202 129/193/202 103/157/202
f 116/179/203 123/187/203 129/193/203
f 123/187/204 102/156/204 129/193/204
f 124/188/205 128/192/205 102/156/205
f 124/188/206 121/185/206 128/192/206
f 121/185/207 101/155/207 128/192/207
f 122/186/208 127/191/208 101/155/208
f 122/186/209 119/182/209 127/191/209
f 119/182/210 100/154/210 127/191/210
f 120/183/211 126/190/211 100/153/211
f 120/183/212 117/180/212 126/190/212
f 117/180/213 99/152/213 126/190/213
f 118/181/214 125/189/214 99/152/214
f 118/181/215 115/178/215 125/189/215
f 115/178/216 103/157/216 125/189/216
f 123/187/217 124/188/217 102/156/217
f 123/187/218 114/177/218 124/188/218
f 114/177/219 97/150/219 124/188/219
f 121/185/220 122/186/220 101/155/220
f 121/185/221 113/176/221 122/186/221
f 113/176/222 96/149/222 122/186/222
f 119/182/223 120/184/223 100/154/223
f 119/182/224 111/173/224 120/184/224
f 111/173/225 95/147/225 120/184/225
f 117/180/226 118/181/226 99/152/226
f 117/180/227 107/167/227 118/181/227
f 107/167/228 94/146/228 118/181/228
f 115/178/229 116/179/229 103/157/229
f 115/178/230 108/168/230 116/179/230
f 108/168/231 98/151/231 116/179/231
f 109/169/232 114/177/232 98/151/232
f 109/169/233 112/174/233 114/177/233
f 112/174/234 97/150/234 114/177/234
f 112/175/235 113/176/235 97/150/235
f 112/175/236 110/171/236 113/176/236
f 110/171/237 96/149/237 113/176/237
f 110/172/238 111/173/238 96/149/238
f 110/172/239 105/163/239 111/173/239
f 105/163/240 95/147/240 111/173/240
f 108/168/241 109/170/241 98/151/241
f 108/168/242 106/165/242 109/170/242
f 106/165/243 93/145/243 109/170/243
f 105/164/244 107/167/244 95/148/244
f 105/164/245 106/166/245 107/167/245
f 106/166/246 94/146/246 107/167/246
