# Blender 3.5.0
# www.blender.org
mtllib ground.mtl
o å††éŒ
v 0.000004 0.012547 -100.000000
v -19.509029 0.012547 -98.078522
v -38.268341 0.012550 -92.387947
v -55.557022 0.012550 -83.146957
v -70.710670 0.012554 -70.710678
v -83.146950 0.012554 -55.557026
v -92.387939 0.012554 -38.268345
v -98.078514 0.012554 -19.509033
v -99.999992 0.012554 0.000000
v -98.078514 0.012554 19.509033
v -92.387939 0.012554 38.268345
v -83.146950 0.012554 55.557026
v -70.710670 0.012554 70.710678
v -55.557022 0.012550 83.146957
v -38.268341 0.012550 92.387947
v -19.509029 0.012547 98.078522
v 0.000004 0.012547 100.000000
v 19.509037 0.012547 98.078522
v 38.268349 0.012543 92.387947
v 55.557030 0.012543 83.146957
v 70.710686 0.012539 70.710678
v 83.146965 0.012539 55.557026
v 92.387955 0.012539 38.268345
v 98.078529 0.012539 19.509033
v 100.000008 0.012539 0.000000
v 98.078529 0.012539 -19.509033
v 92.387955 0.012539 -38.268345
v 83.146965 0.012539 -55.557026
v 70.710686 0.012539 -70.710678
v 55.557030 0.012543 -83.146957
v 38.268349 0.012543 -92.387947
v 19.509037 0.012547 -98.078522
v -0.000004 -99.987457 0.000000
vn -0.0695 -0.7054 -0.7054
vn -0.2058 -0.7054 -0.6783
vn -0.3341 -0.7054 -0.6251
vn -0.4497 -0.7054 -0.5479
vn -0.5479 -0.7054 -0.4497
vn -0.6251 -0.7054 -0.3341
vn -0.6783 -0.7054 -0.2058
vn -0.7054 -0.7054 -0.0695
vn -0.7054 -0.7054 0.0695
vn -0.6783 -0.7054 0.2058
vn -0.6251 -0.7054 0.3341
vn -0.5479 -0.7054 0.4497
vn -0.4497 -0.7054 0.5479
vn -0.3341 -0.7054 0.6251
vn -0.2058 -0.7054 0.6783
vn -0.0695 -0.7054 0.7054
vn 0.0695 -0.7054 0.7054
vn 0.2058 -0.7054 0.6783
vn 0.3341 -0.7054 0.6251
vn 0.4497 -0.7054 0.5479
vn 0.5479 -0.7054 0.4497
vn 0.6251 -0.7054 0.3341
vn 0.6783 -0.7054 0.2058
vn 0.7054 -0.7054 0.0695
vn 0.7054 -0.7054 -0.0695
vn 0.6783 -0.7054 -0.2058
vn 0.6251 -0.7054 -0.3341
vn 0.5479 -0.7054 -0.4497
vn 0.4497 -0.7054 -0.5479
vn 0.3341 -0.7054 -0.6251
vn -0.0000 1.0000 -0.0000
vn 0.2058 -0.7054 -0.6783
vn 0.0695 -0.7054 -0.7054
vt 0.250000 0.490000
vt 0.750000 0.490000
vt 0.296822 0.485388
vt 0.796822 0.485388
vt 0.341844 0.471731
vt 0.841844 0.471731
vt 0.383337 0.449553
vt 0.883337 0.449553
vt 0.419706 0.419706
vt 0.919706 0.419706
vt 0.449553 0.383337
vt 0.949553 0.383337
vt 0.471731 0.341844
vt 0.971731 0.341844
vt 0.485388 0.296822
vt 0.985388 0.296822
vt 0.490000 0.250000
vt 0.990000 0.250000
vt 0.485388 0.203178
vt 0.985388 0.203178
vt 0.471731 0.158156
vt 0.971731 0.158156
vt 0.449553 0.116663
vt 0.949553 0.116663
vt 0.419706 0.080294
vt 0.919706 0.080294
vt 0.383337 0.050447
vt 0.883337 0.050447
vt 0.341844 0.028269
vt 0.841844 0.028269
vt 0.296822 0.014612
vt 0.796822 0.014612
vt 0.250000 0.010000
vt 0.750000 0.010000
vt 0.203178 0.014612
vt 0.703178 0.014612
vt 0.158156 0.028269
vt 0.658156 0.028269
vt 0.116663 0.050447
vt 0.616663 0.050447
vt 0.080294 0.080294
vt 0.580294 0.080294
vt 0.050447 0.116663
vt 0.550447 0.116663
vt 0.028269 0.158156
vt 0.528269 0.158156
vt 0.014612 0.203178
vt 0.514612 0.203178
vt 0.010000 0.250000
vt 0.510000 0.250000
vt 0.014612 0.296822
vt 0.514612 0.296822
vt 0.028269 0.341844
vt 0.528269 0.341844
vt 0.050447 0.383337
vt 0.550447 0.383337
vt 0.080294 0.419706
vt 0.580294 0.419706
vt 0.116663 0.449553
vt 0.616663 0.449553
vt 0.158156 0.471731
vt 0.658156 0.471731
vt 0.203178 0.485388
vt 0.703178 0.485388
vt 0.250000 0.250000
s 0
f 1/1/1 33/65/1 2/3/1
f 2/3/2 33/65/2 3/5/2
f 3/5/3 33/65/3 4/7/3
f 4/7/4 33/65/4 5/9/4
f 5/9/5 33/65/5 6/11/5
f 6/11/6 33/65/6 7/13/6
f 7/13/7 33/65/7 8/15/7
f 8/15/8 33/65/8 9/17/8
f 9/17/9 33/65/9 10/19/9
f 10/19/10 33/65/10 11/21/10
f 11/21/11 33/65/11 12/23/11
f 12/23/12 33/65/12 13/25/12
f 13/25/13 33/65/13 14/27/13
f 14/27/14 33/65/14 15/29/14
f 15/29/15 33/65/15 16/31/15
f 16/31/16 33/65/16 17/33/16
f 17/33/17 33/65/17 18/35/17
f 18/35/18 33/65/18 19/37/18
f 19/37/19 33/65/19 20/39/19
f 20/39/20 33/65/20 21/41/20
f 21/41/21 33/65/21 22/43/21
f 22/43/22 33/65/22 23/45/22
f 23/45/23 33/65/23 24/47/23
f 24/47/24 33/65/24 25/49/24
f 25/49/25 33/65/25 26/51/25
f 26/51/26 33/65/26 27/53/26
f 27/53/27 33/65/27 28/55/27
f 28/55/28 33/65/28 29/57/28
f 29/57/29 33/65/29 30/59/29
f 30/59/30 33/65/30 31/61/30
f 16/32/31 24/48/31 32/64/31
f 31/61/32 33/65/32 32/63/32
f 32/63/33 33/65/33 1/1/33
f 32/64/31 1/2/31 2/4/31
f 2/4/31 3/6/31 4/8/31
f 4/8/31 5/10/31 6/12/31
f 6/12/31 7/14/31 8/16/31
f 8/16/31 9/18/31 10/20/31
f 10/20/31 11/22/31 12/24/31
f 12/24/31 13/26/31 14/28/31
f 14/28/31 15/30/31 16/32/31
f 16/32/31 17/34/31 18/36/31
f 18/36/31 19/38/31 20/40/31
f 20/40/31 21/42/31 22/44/31
f 22/44/31 23/46/31 24/48/31
f 24/48/31 25/50/31 26/52/31
f 26/52/31 27/54/31 28/56/31
f 28/56/31 29/58/31 30/60/31
f 30/60/31 31/62/31 32/64/31
f 32/64/31 2/4/31 8/16/31
f 2/4/31 4/8/31 8/16/31
f 4/8/31 6/12/31 8/16/31
f 8/16/31 10/20/31 16/32/31
f 10/20/31 12/24/31 16/32/31
f 12/24/31 14/28/31 16/32/31
f 16/32/31 18/36/31 24/48/31
f 18/36/31 20/40/31 24/48/31
f 20/40/31 22/44/31 24/48/31
f 24/48/31 26/52/31 32/64/31
f 26/52/31 28/56/31 32/64/31
f 28/56/31 30/60/31 32/64/31
f 32/64/31 8/16/31 16/32/31
